<svg xmlns="http://www.w3.org/2000/svg" viewBox="0 0 80 80" fill="none">
    <!-- Left Vertical Edge -->
    <rect x="8" y="8" width="3" height="14" rx="0.5" fill="#E12726"/>
    <rect x="8" y="24" width="3" height="14" rx="0.5" fill="#E12726"/>
    <rect x="8" y="42" width="3" height="14" rx="0.5" fill="#E12726"/>
    <rect x="8" y="58" width="3" height="14" rx="0.5" fill="#E12726"/>
    
    <!-- Top Arc -->
    <rect x="14" y="5" width="3" height="12" rx="0.5" fill="#E12726"/>
    <rect x="20" y="3" width="3" height="14" rx="0.5" fill="#E12726"/>
    <rect x="26" y="2" width="3" height="14" rx="0.5" fill="#E12726"/>
    <rect x="32" y="2" width="3" height="14" rx="0.5" fill="#E12726" transform="rotate(15 33.5 9)"/>
    <rect x="38" y="4" width="3" height="12" rx="0.5" fill="#E12726" transform="rotate(30 39.5 10)"/>
    <rect x="44" y="7" width="3" height="12" rx="0.5" fill="#E12726" transform="rotate(45 45.5 13)"/>
    <rect x="50" y="12" width="3" height="11" rx="0.5" fill="#E12726" transform="rotate(60 51.5 17.5)"/>
    <rect x="55" y="18" width="3" height="10" rx="0.5" fill="#E12726" transform="rotate(75 56.5 23)"/>
    <rect x="59" y="26" width="3" height="9" rx="0.5" fill="#E12726" transform="rotate(90 60.5 30.5)"/>
    
    <!-- Middle connector -->
    <rect x="60" y="38" width="3" height="8" rx="0.5" fill="#E12726" transform="rotate(90 61.5 42)"/>
    
    <!-- Bottom Arc -->
    <rect x="59" y="48" width="3" height="9" rx="0.5" fill="#E12726" transform="rotate(-90 60.5 52.5)"/>
    <rect x="55" y="54" width="3" height="10" rx="0.5" fill="#E12726" transform="rotate(-75 56.5 59)"/>
    <rect x="50" y="59" width="3" height="11" rx="0.5" fill="#E12726" transform="rotate(-60 51.5 64.5)"/>
    <rect x="44" y="63" width="3" height="12" rx="0.5" fill="#E12726" transform="rotate(-45 45.5 69)"/>
    <rect x="38" y="66" width="3" height="12" rx="0.5" fill="#E12726" transform="rotate(-30 39.5 72)"/>
    <rect x="32" y="68" width="3" height="14" rx="0.5" fill="#E12726" transform="rotate(-15 33.5 75)"/>
    <rect x="26" y="68" width="3" height="14" rx="0.5" fill="#E12726"/>
    <rect x="20" y="67" width="3" height="14" rx="0.5" fill="#E12726"/>
    <rect x="14" y="67" width="3" height="12" rx="0.5" fill="#E12726"/>
</svg>
